<?xml version="1.0" encoding="utf-8"?>
<!-- Generator: Adobe Illustrator 24.0.0, SVG Export Plug-In . SVG Version: 6.00 Build 0)  -->
<svg version="1.1"
	 id="mapa-brasil" inkscape:output_extension="org.inkscape.output.svg.inkscape" inkscape:version="0.45.1" sodipodi:docbase="C:\Users\Ado\Pictures" sodipodi:docname="Brazil_Political_Map.svg" sodipodi:version="0.32" xmlns:cc="http://web.resource.org/cc/" xmlns:dc="http://purl.org/dc/elements/1.1/" xmlns:inkscape="http://www.inkscape.org/namespaces/inkscape" xmlns:rdf="http://www.w3.org/1999/02/22-rdf-syntax-ns#" xmlns:sodipodi="http://sodipodi.sourceforge.net/DTD/sodipodi-0.dtd" xmlns:svg="http://www.w3.org/2000/svg"
	 xmlns="http://www.w3.org/2000/svg" xmlns:xlink="http://www.w3.org/1999/xlink" x="0px" y="0px" viewBox="0 0 532.6 542.5"
	 style="enable-background:new 0 0 532.6 542.5;" xml:space="preserve">
<style type="text/css">
	.st0{display:none;fill:url(#SVGID_1_);}
	.st1{display:none;}
	.st6{display:none;fill:#EBF2F2;}
</style>
<circle class="st0" cx="268.7" cy="277.7" r="256.3"/>
<g>
	<path class="st13" d="M120.5,357.4l-7.1,12.4L120.5,357.4L120.5,357.4z M120.4,187.1v170.3h0.1l-7.1,12.4v8.9h310v-8.9l-7-12.8l0,0
		l0,0l0,0l0,0l0,0V186.9l-9.4,0.2v-68.2h-6.2V98.6c3.1-2.6,4.6-6.9,4.6-11.2c0-9.2-7.9-17-17.5-17c-9.4,0-17.5,7.7-17.5,17
		c0,4.3,1.5,7.7,4.8,11.5l0.2,19.9H369V187h-10.2l0,0h-17.7l0,0H331v-59.8l1.8-4H205.5l1.8,4v49.6l0,0V187l0,0l0,0h-10.2l0,0h-28.9
		l0,0h-0.3v-68.3l-6.1,0.1l0.3-20.3c3.1-2.6,4.6-6.9,4.6-11.2c0-9.2-7.9-17-17.5-17c-9.4,0-17.5,7.7-17.5,17c0,4.3,1.5,7.7,4.8,11.5
		l0.2,19.9l-6-0.1v68.3h-10.2l0,0L120.4,187.1L120.4,187.1z M110.2,192.7l-6.5-5.7H103v-10.2h17.5v-58.1l0,0v-10.2h5.6v-4.6
		c-2.3-4.6-4.6-10.4-4.6-16.1c0-13.6,10.1-25.1,23-27.4l0.2-2.7c-1.1-1.1-1.8-2.7-1.8-4.4c0-2.1,1-4,2.7-5.2l1.7-18.7
		c-0.2-0.3-0.3-0.7-0.3-1c0-1.2,1-2.1,2.1-2.1c1.2,0,2.1,1,2.1,2.1c0,0.3-0.1,0.7-0.2,0.9l1.8,18.7c1.7,1.1,2.8,3.1,2.8,5.3
		c0,1.8-0.7,3.3-1.9,4.5l0.3,2.7c12.8,2.4,22.8,13.9,22.8,27.4c0,5.8-2.3,11.5-4.6,16.1l-0.1,4.6h5.8v10.2l0,0v58.1h19V129l-5.6-5.3
		v-7.9l5.6-2.7l0,0l3.2-6.1h7.9l5.8,6.1h29.5l5.3-5.7h7.9l5.4,5.6h12.9l5.3-5.6h7.9l5.3,5.6h30.9l5.7-6.1h7.9l2.8,6l6,2.8v7.9
		l-5.6,5.3v47.9h17.7v-68h6.1v-4.9c-2.3-4.6-4.6-10.4-4.6-16.1c0-13.4,9.9-24.9,22.6-27.3l0.3-2.8c-1.1-1.1-1.9-2.7-1.9-4.5
		c0-2.2,1.1-4.2,2.8-5.3l1.9-18.6c-0.2-0.3-0.2-0.6-0.2-1c0-1.2,1-2.1,2.1-2.1c1.2,0,2.1,1,2.1,2.1c0,0.4-0.1,0.7-0.2,1l1.6,18.8
		c1.6,1.2,2.6,3,2.6,5.1c0,1.7-0.7,3.3-1.8,4.4l0.2,2.7c13,2.2,23.2,13.8,23.2,27.5c0,5.8-2.3,11.5-4.6,16.1l-0.1,4.8h6.3v67.7h16.6
		v10.2H433l-6.5,5.7v57.6h3.5h3.3v9.7l-6.8,6v39.6h3.5h3.3v9.7l-6.8,6V357l0,0l6.8,6.4v15.3h0.2v10.2H102.7v-10.2h0.4v-15.3l6.9-5.9
		h-0.1v-36.1l-6.8-6v-9.7h3.3h3.5V266l-6.8-6v-9.7h6.8L110.2,192.7L110.2,192.7z"/>
	<path class="st13" d="M111.2,441.6v53.7h8.8v-23.7h24.4v-7.8H120v-14.4h27.9v-7.8L111.2,441.6L111.2,441.6z M155.5,441.6v53.7h9
		v-53.7H155.5L155.5,441.6z M199.6,440.2c-15.9,0-25.8,10.6-25.8,28.3c0,17.7,9.9,28.3,25.8,28.3s25.8-10.7,25.8-28.3
		C225.3,450.9,215.5,440.2,199.6,440.2L199.6,440.2z M199.6,448c10.3,0,16.7,7.4,16.7,20.5S210,489,199.6,489
		c-10.3,0-16.7-7.5-16.7-20.5C182.9,455.3,189.3,448,199.6,448L199.6,448z M279.7,458.4c-1-11.2-9.2-18.2-22.3-18.2
		c-15.9,0-25.4,10.5-25.4,28.3c0,17.6,9.4,28.3,24.7,28.3c13.2,0,22.7-8.6,23.1-20.8h-8.7c-0.6,7.7-6.2,12.7-14,12.7
		c-9.8,0-16-7.6-16-20.6c0-12.6,5.8-19.9,16.1-19.9c7.7,0,12.6,3.7,13.6,10.2H279.7L279.7,458.4z M288.6,441.6v53.7h8.9v-22.1H311
		c7.1,0,8.2,3,8.5,8.6l0.3,6.4c0.1,2.8,0.3,5.2,1.3,7.1h10v-1.6c-2-1.1-2.1-3.1-2.2-6.2l-0.4-7.7c-0.3-5.8-1.3-9.1-6.4-10.8
		c4.9-1.9,7.7-6.3,7.7-12.5c0-9.3-5.7-14.9-15.2-14.9c-0.3,0-1.3-0.1-2.8-0.1h-23.2V441.6z M297.4,449.1h13c6.7,0,10.3,1.9,10.3,8.1
		c0,6.3-3.5,8.4-10.5,8.4h-12.8V449.1L297.4,449.1z M339.5,441.6v33.9c0,14,7.2,21.3,21.2,21.3c13.4,0,21.3-7.5,21.3-21.3v-33.9h-9
		V475c0,9.1-3.8,13.6-12.3,13.6s-12.2-4.5-12.2-13.6v-33.4H339.5L339.5,441.6z M390.6,441.6v7.8h29.8l-31.3,38.5v7.5h41.6v-7.9H400
		l30.9-37.9v-7.8h-40.3V441.6z"/>
</g>
</svg>
